<svg width="52" height="52" viewBox="0 0 52 52" fill="none" xmlns="http://www.w3.org/2000/svg">
<g filter="url(#filter0_d)">
<path d="M47.1702 20.0396L27.9594 0.829769C26.8537 -0.27659 25.0593 -0.27659 23.9523 0.829769L19.9631 4.81899L25.0236 9.8795C26.1995 9.48213 27.5481 9.74871 28.4855 10.6861C29.4274 11.6295 29.692 12.9896 29.285 14.1693L34.162 19.0465C35.3419 18.64 36.7033 18.9029 37.6457 19.8469C38.9628 21.1634 38.9628 23.2973 37.6457 24.6147C36.3283 25.9323 34.1945 25.9323 32.8764 24.6147C31.8857 23.623 31.6409 22.1681 32.1425 20.9476L27.5943 16.3994L27.5938 28.3683C27.9235 28.5313 28.2246 28.7466 28.4855 29.0059C29.8026 30.3225 29.8026 32.4565 28.4855 33.7749C27.1681 35.0919 25.0332 35.0919 23.7177 33.7749C22.4006 32.4565 22.4006 30.3227 23.7177 29.0061C24.0333 28.6903 24.4084 28.4402 24.8213 28.2703V16.1899C24.4078 16.0211 24.0325 15.7709 23.7177 15.4541C22.7198 14.4576 22.4798 12.9934 22.9912 11.7681L18.0027 6.77905L4.83016 19.9507C3.72328 21.0581 3.72328 22.8526 4.83016 23.9592L24.0413 43.1693C25.1473 44.2758 26.9414 44.2758 28.0487 43.1693L47.17 24.0484C48.2765 22.9415 48.2765 21.1459 47.17 20.0396" fill="#DE4C36"/>
</g>
<defs>
<filter id="filter0_d" x="0" y="0" width="51.9999" height="51.9992" filterUnits="userSpaceOnUse" color-interpolation-filters="sRGB">
<feFlood flood-opacity="0" result="BackgroundImageFix"/>
<feColorMatrix in="SourceAlpha" type="matrix" values="0 0 0 0 0 0 0 0 0 0 0 0 0 0 0 0 0 0 127 0"/>
<feOffset dy="4"/>
<feGaussianBlur stdDeviation="2"/>
<feColorMatrix type="matrix" values="0 0 0 0 0 0 0 0 0 0 0 0 0 0 0 0 0 0 0.5 0"/>
<feBlend mode="normal" in2="BackgroundImageFix" result="effect1_dropShadow"/>
<feBlend mode="normal" in="SourceGraphic" in2="effect1_dropShadow" result="shape"/>
</filter>
</defs>
</svg>
