<svg width="47" height="48" viewBox="0 0 47 48" fill="none" xmlns="http://www.w3.org/2000/svg">
<g filter="url(#filter0_d)">
<path d="M22 1.83325C16.6515 1.83325 11.522 3.95795 7.74005 7.73993C3.95807 11.5219 1.83337 16.6514 1.83337 21.9999C1.83337 27.3485 3.95807 32.4779 7.74005 36.2599C11.522 40.0419 16.6515 42.1666 22 42.1666C27.3486 42.1666 32.478 40.0419 36.26 36.2599C40.042 32.4779 42.1667 27.3485 42.1667 21.9999C42.1667 16.6514 40.042 11.5219 36.26 7.73993C32.478 3.95795 27.3486 1.83325 22 1.83325ZM27.3167 38.4413H27.159C27.0416 38.4476 26.9241 38.4299 26.8138 38.3892C26.7035 38.3486 26.6026 38.2858 26.5174 38.2048C26.4386 38.1217 26.3771 38.0238 26.3365 37.9168C26.2959 37.8098 26.277 37.6958 26.2809 37.5814V35.2164C26.2919 34.4318 26.2992 33.6398 26.2992 32.8386C26.2962 32.2532 26.2104 31.6711 26.0444 31.1098C25.8879 30.5428 25.5724 30.0326 25.135 29.6394C26.3063 29.5263 27.4577 29.26 28.5597 28.8474C29.4894 28.4942 30.3304 27.9416 31.0237 27.2286C31.7075 26.5099 32.2154 25.6446 32.5087 24.6968C32.868 23.5381 33.0385 22.3318 33.0147 21.1181C33.0201 20.2714 32.871 19.4308 32.5747 18.6376C32.2754 17.8383 31.8226 17.1052 31.2419 16.4798C31.3665 16.1644 31.4582 15.8363 31.5132 15.5008C31.641 14.7325 31.6186 13.9468 31.4472 13.1871C31.3554 12.7506 31.231 12.3216 31.075 11.9038C31.0154 11.8807 30.9519 11.8695 30.888 11.8708H30.7047C30.3197 11.8744 29.9365 11.9386 29.5717 12.0578C29.1684 12.1751 28.7724 12.3218 28.3892 12.4959C28.0082 12.6665 27.6373 12.8587 27.2782 13.0716C26.9511 13.2645 26.6302 13.4674 26.3157 13.6803C23.4888 12.8924 20.5003 12.8924 17.6734 13.6803C17.3577 13.4693 17.0368 13.2664 16.7109 13.0716C16.3468 12.8563 15.9696 12.664 15.5815 12.4959C15.1996 12.3172 14.8035 12.1707 14.3972 12.0578C14.038 11.9389 13.6627 11.8759 13.2844 11.8708H13.101C13.0383 11.8705 12.976 11.8823 12.9177 11.9056C12.7585 12.3234 12.628 12.7515 12.5272 13.1871C12.3682 13.9487 12.3514 14.7331 12.4777 15.5008C12.5327 15.8363 12.6225 16.1644 12.7472 16.4798C12.167 17.1053 11.7148 17.8383 11.4162 18.6376C11.1199 19.4308 10.9708 20.2714 10.9762 21.1181C10.952 22.323 11.1165 23.5244 11.4639 24.6784C11.77 25.6263 12.276 26.4971 12.9507 27.2286C13.6474 27.9363 14.487 28.4881 15.4147 28.8474C16.511 29.2691 17.6605 29.5386 18.8302 29.6486C18.5039 29.9438 18.2435 30.3086 18.0712 30.7119C17.9062 31.1134 17.7907 31.5333 17.7339 31.9623C17.1174 32.2578 16.443 32.4131 15.7594 32.4169C15.1244 32.4417 14.498 32.2645 13.97 31.9109C13.4628 31.5357 13.0332 31.0656 12.705 30.5268C12.5583 30.3008 12.3947 30.0863 12.2155 29.8851C12.0263 29.674 11.8176 29.4813 11.5922 29.3094C11.3689 29.1428 11.124 29.0071 10.8644 28.9061C10.6095 28.7941 10.3343 28.736 10.0559 28.7356C9.98835 28.7377 9.92101 28.7439 9.85421 28.7539C9.76254 28.7539 9.67088 28.7649 9.58288 28.7869C9.50417 28.8073 9.42969 28.8414 9.36287 28.8878C9.33333 28.9046 9.30866 28.9288 9.29131 28.9581C9.27395 28.9873 9.2645 29.0206 9.26387 29.0546C9.27122 29.1356 9.29619 29.214 9.33705 29.2843C9.3779 29.3546 9.43365 29.4151 9.50037 29.4616C9.65437 29.5863 9.78454 29.6816 9.88904 29.7494L9.93671 29.7843C10.1622 29.9566 10.3767 30.1436 10.5784 30.3434C10.769 30.5084 10.9395 30.6954 11.0844 30.8989C11.2365 31.0969 11.3667 31.3133 11.473 31.5388C11.5959 31.7643 11.726 32.0228 11.8617 32.3161C12.177 33.1118 12.738 33.7864 13.464 34.2411C14.2249 34.6499 15.081 34.8534 15.9445 34.8314C16.2379 34.8314 16.5312 34.8131 16.8245 34.7801C17.1105 34.7343 17.3984 34.6848 17.6862 34.6279V37.5576C17.6911 37.6755 17.6711 37.793 17.6276 37.9027C17.5841 38.0123 17.518 38.1116 17.4336 38.1941C17.3493 38.2766 17.2485 38.3404 17.1379 38.3814C17.0273 38.4224 16.9093 38.4396 16.7915 38.4321H16.687C12.7685 37.1661 9.43066 34.5426 7.27463 31.0341C5.1186 27.5256 4.28604 23.3627 4.92685 19.2948C5.56767 15.227 7.63976 11.5216 10.77 8.84584C13.9002 6.17011 17.883 4.69987 22.001 4.69987C26.119 4.69987 30.1017 6.17011 33.2319 8.84584C36.3622 11.5216 38.4342 15.227 39.0751 19.2948C39.7159 23.3627 38.8833 27.5256 36.7273 31.0341C34.5713 34.5426 31.2334 37.1661 27.3149 38.4321V38.4413H27.3167Z" fill="#00D8FF"/>
</g>
<defs>
<filter id="filter0_d" x="0" y="0" width="48" height="49" filterUnits="userSpaceOnUse" color-interpolation-filters="sRGB">
<feFlood flood-opacity="0" result="BackgroundImageFix"/>
<feColorMatrix in="SourceAlpha" type="matrix" values="0 0 0 0 0 0 0 0 0 0 0 0 0 0 0 0 0 0 127 0"/>
<feOffset dx="2" dy="3"/>
<feGaussianBlur stdDeviation="1"/>
<feColorMatrix type="matrix" values="0 0 0 0 0 0 0 0 0 0 0 0 0 0 0 0 0 0 0.75 0"/>
<feBlend mode="normal" in2="BackgroundImageFix" result="effect1_dropShadow"/>
<feBlend mode="normal" in="SourceGraphic" in2="effect1_dropShadow" result="shape"/>
</filter>
</defs>
</svg>
