<svg width="52" height="52" viewBox="0 0 52 52" fill="none" xmlns="http://www.w3.org/2000/svg">
<g filter="url(#filter0_d)">
<path fill-rule="evenodd" clip-rule="evenodd" d="M4 0H48V44H4V0Z" fill="#F1DC50"/>
<path d="M27.3333 23V35.8C27.3333 37.2016 26.481 39 24.0741 39C20.1874 39 20 35.8 20 35.8M41.6578 27.0256C40.68 25.4096 39.3828 24.6 37.7695 24.6C35.2468 24.6 33.8519 26.2 33.8519 27.8C33.8519 29.4 34.6667 31 37.939 31.8C40.0216 32.3088 42 33.4 42 35.8C42 38.2 39.857 39 37.9259 39C35.4587 39 33.829 37.9328 33.037 35.8" stroke="#333333" stroke-width="3.66667"/>
</g>
<defs>
<filter id="filter0_d" x="0" y="0" width="52" height="52" filterUnits="userSpaceOnUse" color-interpolation-filters="sRGB">
<feFlood flood-opacity="0" result="BackgroundImageFix"/>
<feColorMatrix in="SourceAlpha" type="matrix" values="0 0 0 0 0 0 0 0 0 0 0 0 0 0 0 0 0 0 127 0"/>
<feOffset dy="4"/>
<feGaussianBlur stdDeviation="2"/>
<feColorMatrix type="matrix" values="0 0 0 0 0 0 0 0 0 0 0 0 0 0 0 0 0 0 0.5 0"/>
<feBlend mode="normal" in2="BackgroundImageFix" result="effect1_dropShadow"/>
<feBlend mode="normal" in="SourceGraphic" in2="effect1_dropShadow" result="shape"/>
</filter>
</defs>
</svg>
