<svg width="32" height="32" viewBox="0 0 32 32" fill="none" xmlns="http://www.w3.org/2000/svg">
<path d="M26.6667 2.66663H12.4444V7.11107H14.2222V4.4444H26.6667C27.2 4.4444 27.5555 4.79996 27.5555 5.33329V15.1111C27.5555 15.6444 27.2 16 26.6667 16H15.1111V22.2222H10.4L7.1111 24.8V22.2222H4.44444C3.9111 22.2222 3.55555 21.8666 3.55555 21.3333V11.5555C3.55555 11.0222 3.9111 10.6666 4.44444 10.6666H16V8.88885H4.44444C2.93333 8.88885 1.77777 10.0444 1.77777 11.5555V21.3333C1.77777 22.8444 2.93333 24 4.44444 24H5.33333V28.5333L10.9333 24H16.8889V17.7777H26.6667C28.1778 17.7777 29.3333 16.6222 29.3333 15.1111V5.33329C29.3333 3.82218 28.1778 2.66663 26.6667 2.66663Z" fill="white"/>
<path d="M5.51111 20.3556H7.64444L8.17778 18.9333H10.9333L11.4667 20.3556H13.6L10.5778 12.4445H8.44444L5.51111 20.3556ZM9.51111 14.6667L10.4 17.4222H8.62222L9.51111 14.6667Z" fill="white"/>
<path d="M17.7778 15.1112C18.7555 15.1112 20.0889 14.8445 21.3333 14.2223C22.5778 14.8445 24 15.1112 24.8889 15.1112V13.3334C24.8889 13.3334 24 13.3334 23.0222 12.9778C24.0889 11.9112 24.8889 10.3112 24.8889 8.00004V7.11115H22.2222V5.33337H20.4444V7.11115H17.7778V8.88893H23.0222C22.8444 10.4889 22.1333 11.4667 21.3333 12.0889C20.8 11.6445 20.2667 11.0223 19.9111 10.2223H18.0444C18.4 11.3778 18.9333 12.2667 19.6444 12.9778C18.7555 13.3334 17.9555 13.3334 17.7778 13.3334V15.1112Z" fill="white"/>
</svg>
