<svg width="173" height="96" viewBox="0 0 173 96" fill="none" xmlns="http://www.w3.org/2000/svg">
<g filter="url(#filter0_d)">
<path d="M71.5481 14L47 84H66.738L71.8798 69.3488H90.9543L96.262 84H116L91.4519 14H71.5481Z" fill="#2B7A78"/>
</g>
<g filter="url(#filter1_i)">
<path d="M89 54L81.7651 34H40L46.906 54H74.5302H89Z" fill="#DEF2F1"/>
</g>
<g filter="url(#filter2_i)">
<path d="M118.04 54.1818H125.3L121.846 44.1818L118.14 33.4545H98.01L105.17 54.1818H118.04Z" fill="#DEF2F1"/>
</g>
<g filter="url(#filter3_d)">
<path d="M27 76.3636V88H18C8.60761 87.8931 5.97143 85.3734 6 76.3636V57.0909C5.88484 51.1818 4.55872 49.3654 0 48.7273V39.2727C4.73357 39.254 6.01138 37.0578 6 29.1553V11.6364C6.11734 3.00302 8.30553 0.0641013 18 0H27V11.6364H24.3333C21.1274 11.6764 20.0595 12.7009 20 17.0909V34.1818C19.8688 39.8223 18.812 42.0214 15 44C18.678 46.0076 19.7777 48.2156 20 54.1818V70.5455C20.0012 74.9485 20.9066 76.262 24.3333 76.3636H27Z" fill="black"/>
</g>
<g filter="url(#filter4_d)">
<path d="M138 11.6364V0H147C156.392 0.106926 159.029 2.62663 159 11.6364V30.9091C159.115 36.8182 160.441 38.6346 165 39.2727V48.7273C160.266 48.746 158.989 50.9422 159 58.8447V76.3636C158.883 84.997 156.694 87.9359 147 88H138V76.3636H140.667C143.873 76.3236 144.941 75.2991 145 70.9091V53.8182C145.131 48.1777 146.188 45.9786 150 44C146.322 41.9924 145.222 39.7844 145 33.8182V17.4545C144.999 13.0515 144.093 11.738 140.667 11.6364H138Z" fill="black"/>
</g>
<defs>
<filter id="filter0_d" x="47" y="14" width="77" height="78" filterUnits="userSpaceOnUse" color-interpolation-filters="sRGB">
<feFlood flood-opacity="0" result="BackgroundImageFix"/>
<feColorMatrix in="SourceAlpha" type="matrix" values="0 0 0 0 0 0 0 0 0 0 0 0 0 0 0 0 0 0 127 0"/>
<feOffset dx="4" dy="4"/>
<feGaussianBlur stdDeviation="2"/>
<feColorMatrix type="matrix" values="0 0 0 0 0 0 0 0 0 0 0 0 0 0 0 0 0 0 0.25 0"/>
<feBlend mode="normal" in2="BackgroundImageFix" result="effect1_dropShadow"/>
<feBlend mode="normal" in="SourceGraphic" in2="effect1_dropShadow" result="shape"/>
</filter>
<filter id="filter1_i" x="40" y="34" width="49" height="24" filterUnits="userSpaceOnUse" color-interpolation-filters="sRGB">
<feFlood flood-opacity="0" result="BackgroundImageFix"/>
<feBlend mode="normal" in="SourceGraphic" in2="BackgroundImageFix" result="shape"/>
<feColorMatrix in="SourceAlpha" type="matrix" values="0 0 0 0 0 0 0 0 0 0 0 0 0 0 0 0 0 0 127 0" result="hardAlpha"/>
<feOffset dy="4"/>
<feGaussianBlur stdDeviation="2"/>
<feComposite in2="hardAlpha" operator="arithmetic" k2="-1" k3="1"/>
<feColorMatrix type="matrix" values="0 0 0 0 0 0 0 0 0 0 0 0 0 0 0 0 0 0 0.25 0"/>
<feBlend mode="normal" in2="shape" result="effect1_innerShadow"/>
</filter>
<filter id="filter2_i" x="98.01" y="33.4545" width="27.2903" height="24.7273" filterUnits="userSpaceOnUse" color-interpolation-filters="sRGB">
<feFlood flood-opacity="0" result="BackgroundImageFix"/>
<feBlend mode="normal" in="SourceGraphic" in2="BackgroundImageFix" result="shape"/>
<feColorMatrix in="SourceAlpha" type="matrix" values="0 0 0 0 0 0 0 0 0 0 0 0 0 0 0 0 0 0 127 0" result="hardAlpha"/>
<feOffset dy="4"/>
<feGaussianBlur stdDeviation="2"/>
<feComposite in2="hardAlpha" operator="arithmetic" k2="-1" k3="1"/>
<feColorMatrix type="matrix" values="0 0 0 0 0 0 0 0 0 0 0 0 0 0 0 0 0 0 0.25 0"/>
<feBlend mode="normal" in2="shape" result="effect1_innerShadow"/>
</filter>
<filter id="filter3_d" x="0" y="0" width="35" height="96" filterUnits="userSpaceOnUse" color-interpolation-filters="sRGB">
<feFlood flood-opacity="0" result="BackgroundImageFix"/>
<feColorMatrix in="SourceAlpha" type="matrix" values="0 0 0 0 0 0 0 0 0 0 0 0 0 0 0 0 0 0 127 0"/>
<feOffset dx="4" dy="4"/>
<feGaussianBlur stdDeviation="2"/>
<feColorMatrix type="matrix" values="0 0 0 0 0 0 0 0 0 0 0 0 0 0 0 0 0 0 0.25 0"/>
<feBlend mode="normal" in2="BackgroundImageFix" result="effect1_dropShadow"/>
<feBlend mode="normal" in="SourceGraphic" in2="effect1_dropShadow" result="shape"/>
</filter>
<filter id="filter4_d" x="138" y="0" width="35" height="96" filterUnits="userSpaceOnUse" color-interpolation-filters="sRGB">
<feFlood flood-opacity="0" result="BackgroundImageFix"/>
<feColorMatrix in="SourceAlpha" type="matrix" values="0 0 0 0 0 0 0 0 0 0 0 0 0 0 0 0 0 0 127 0"/>
<feOffset dx="4" dy="4"/>
<feGaussianBlur stdDeviation="2"/>
<feColorMatrix type="matrix" values="0 0 0 0 0 0 0 0 0 0 0 0 0 0 0 0 0 0 0.25 0"/>
<feBlend mode="normal" in2="BackgroundImageFix" result="effect1_dropShadow"/>
<feBlend mode="normal" in="SourceGraphic" in2="effect1_dropShadow" result="shape"/>
</filter>
</defs>
</svg>
