<svg width="60" height="50" viewBox="0 0 60 50" fill="none" xmlns="http://www.w3.org/2000/svg">
<path d="M9.75 2.17975e-08H50.25C52.7404 -0.000169834 55.1365 0.992356 56.9467 2.77397C58.7569 4.55559 59.844 6.99123 59.985 9.58125L60 10.1562V39.8438C60.0002 42.4379 59.0473 44.9338 57.337 46.8195C55.6266 48.7051 53.2884 49.8375 50.802 49.9844L50.25 50H9.75C7.25959 50.0002 4.86351 49.0076 3.05331 47.226C1.2431 45.4444 0.155996 43.0088 0.0150004 40.4188L2.09256e-08 39.8438V10.1562C-0.00016304 7.56207 0.952662 5.06616 2.66302 3.18053C4.37337 1.2949 6.71158 0.162496 9.198 0.0156254L9.75 2.17975e-08H50.25H9.75ZM55.5 16.7906L31.05 30.1969C30.7739 30.3488 30.4705 30.4392 30.1591 30.4623C29.8476 30.4855 29.535 30.4408 29.241 30.3313L28.953 30.2L4.5 16.7937V39.8438C4.50005 41.2162 4.99551 42.5385 5.88804 43.5481C6.78057 44.5577 8.0049 45.1808 9.318 45.2937L9.75 45.3125H50.25C51.568 45.3124 52.8378 44.7958 53.8071 43.8655C54.7764 42.9351 55.3743 41.659 55.482 40.2906L55.5 39.8438V16.7906ZM50.25 4.6875H9.75C8.43243 4.68755 7.16305 5.20366 6.19383 6.13337C5.22461 7.06309 4.62642 8.33844 4.518 9.70625L4.5 10.1562V11.4969L30 25.475L55.5 11.4937V10.1562C55.4999 8.78329 55.004 7.46059 54.1109 6.45091C53.2177 5.44123 51.9926 4.81844 50.679 4.70625L50.25 4.6875Z" fill="black"/>
</svg>
