<svg width="43" height="47" viewBox="0 0 43 47" fill="none" xmlns="http://www.w3.org/2000/svg">
<g filter="url(#filter0_d)">
<path d="M21.0706 38.4995C20.5513 38.4997 20.041 38.3631 19.5911 38.1035L14.8831 35.3163C14.1805 34.9231 14.5229 34.7842 14.7553 34.7031C15.5025 34.4722 16.218 34.1489 16.8851 33.7406C16.941 33.7148 17.0025 33.7036 17.0638 33.7082C17.1252 33.7127 17.1844 33.7329 17.2358 33.7667L20.8534 35.9158C20.9207 35.9515 20.9958 35.9701 21.072 35.9701C21.1482 35.9701 21.2233 35.9515 21.2906 35.9158L35.3981 27.7731C35.4642 27.7335 35.5188 27.6775 35.5566 27.6105C35.5944 27.5435 35.6142 27.4678 35.614 27.3908V11.1026C35.6141 11.0244 35.594 10.9475 35.5557 10.8794C35.5174 10.8112 35.4622 10.7541 35.3954 10.7135L21.2879 2.57759C21.2214 2.54012 21.1463 2.52044 21.0699 2.52044C20.9936 2.52044 20.9185 2.54012 20.852 2.57759L6.75276 10.7162C6.68551 10.756 6.62966 10.8125 6.59064 10.8801C6.55161 10.9478 6.53073 11.0245 6.53001 11.1026V27.384C6.5302 27.4607 6.5508 27.5361 6.5897 27.6023C6.6286 27.6685 6.6844 27.7232 6.75138 27.7607L10.6206 29.9937C12.7175 31.0415 14.0018 29.8067 14.0018 28.5665V12.4913C14.0018 12.3819 14.0452 12.277 14.1226 12.1997C14.1999 12.1223 14.3049 12.0788 14.4143 12.0788H16.2018C16.3112 12.0788 16.4161 12.1223 16.4934 12.1997C16.5708 12.277 16.6143 12.3819 16.6143 12.4913V28.5678C16.6143 31.366 15.0908 32.9678 12.437 32.9678C11.2922 32.9878 10.1653 32.6816 9.18788 32.0851L5.47951 29.958C5.02932 29.6958 4.65577 29.3201 4.39616 28.8685C4.13655 28.4168 3.99995 27.9049 4.00001 27.384V11.1026C3.99867 10.5808 4.13469 10.0679 4.39439 9.61533C4.6541 9.16278 5.02834 8.78656 5.47951 8.52446L19.5884 0.378965C20.0429 0.130321 20.5526 0 21.0706 0C21.5887 0 22.0984 0.130321 22.5529 0.378965L36.6604 8.52446C37.1105 8.78612 37.4842 9.16125 37.744 9.61243C38.0039 10.0636 38.1408 10.5751 38.1413 11.0957V27.384C38.1405 27.9049 38.0034 28.4166 37.7436 28.8682C37.4838 29.3197 37.1104 29.6954 36.6604 29.958L22.5529 38.1035C22.1022 38.3635 21.5909 38.5001 21.0706 38.4995Z" fill="#83CD29"/>
</g>
<g filter="url(#filter1_d)">
<path d="M18.3948 21.9349C18.3948 21.8255 18.4383 21.7206 18.5157 21.6432C18.593 21.5659 18.6979 21.5224 18.8073 21.5224H20.632C20.7295 21.5227 20.8237 21.5576 20.8979 21.6208C20.9722 21.6839 21.0217 21.7714 21.0376 21.8675C21.3126 23.7252 22.1376 24.6616 25.868 24.6616C28.8393 24.6616 30.1057 23.9892 30.1057 22.4121C30.1057 21.5032 29.7468 20.8281 25.1282 20.3757C21.2672 19.9934 18.8802 19.1382 18.8802 16.0527C18.8802 13.2064 21.2796 11.5083 25.3015 11.5083C29.8211 11.5083 32.0582 13.0772 32.3415 16.4432C32.3458 16.4994 32.3386 16.5559 32.3202 16.6091C32.3018 16.6624 32.2728 16.7114 32.2348 16.753C32.1968 16.7946 32.1506 16.828 32.0992 16.8511C32.0478 16.8742 31.9922 16.8865 31.9358 16.8873H30.0988C30.0067 16.886 29.9176 16.8539 29.8458 16.7961C29.7741 16.7383 29.7237 16.6581 29.7028 16.5683C29.2642 14.6144 28.1903 13.9902 25.3028 13.9902C22.0578 13.9902 21.6811 15.1204 21.6811 15.9674C21.6811 16.9932 22.1266 17.2929 26.5073 17.8718C30.8427 18.4452 32.9025 19.2564 32.9025 22.3034C32.9025 25.3779 30.3395 27.1379 25.8693 27.1379C19.6887 27.1462 18.3948 24.3123 18.3948 21.9349Z" fill="#83CD29"/>
</g>
<defs>
<filter id="filter0_d" x="0" y="0" width="42.1413" height="46.4995" filterUnits="userSpaceOnUse" color-interpolation-filters="sRGB">
<feFlood flood-opacity="0" result="BackgroundImageFix"/>
<feColorMatrix in="SourceAlpha" type="matrix" values="0 0 0 0 0 0 0 0 0 0 0 0 0 0 0 0 0 0 127 0"/>
<feOffset dy="4"/>
<feGaussianBlur stdDeviation="2"/>
<feColorMatrix type="matrix" values="0 0 0 0 0 0 0 0 0 0 0 0 0 0 0 0 0 0 0.5 0"/>
<feBlend mode="normal" in2="BackgroundImageFix" result="effect1_dropShadow"/>
<feBlend mode="normal" in="SourceGraphic" in2="effect1_dropShadow" result="shape"/>
</filter>
<filter id="filter1_d" x="14.3948" y="11.5083" width="22.5076" height="23.6296" filterUnits="userSpaceOnUse" color-interpolation-filters="sRGB">
<feFlood flood-opacity="0" result="BackgroundImageFix"/>
<feColorMatrix in="SourceAlpha" type="matrix" values="0 0 0 0 0 0 0 0 0 0 0 0 0 0 0 0 0 0 127 0"/>
<feOffset dy="4"/>
<feGaussianBlur stdDeviation="2"/>
<feColorMatrix type="matrix" values="0 0 0 0 0 0 0 0 0 0 0 0 0 0 0 0 0 0 0.5 0"/>
<feBlend mode="normal" in2="BackgroundImageFix" result="effect1_dropShadow"/>
<feBlend mode="normal" in="SourceGraphic" in2="effect1_dropShadow" result="shape"/>
</filter>
</defs>
</svg>
