<svg width="58" height="52" viewBox="0 0 58 52" fill="none" xmlns="http://www.w3.org/2000/svg">
<g filter="url(#filter0_d)">
<path d="M44.6195 14.2467C44.0938 14.0663 43.5635 13.8992 43.0294 13.7455C43.1191 13.3789 43.2017 13.0166 43.275 12.6608C44.4788 6.81707 43.6919 2.10926 41.0038 0.559229C38.4265 -0.926735 34.2116 0.622721 29.9548 4.3274C29.5353 4.69317 29.125 5.06948 28.7245 5.45597C28.4564 5.19896 28.1835 4.94695 27.9061 4.70005C23.4447 0.738896 18.9729 -0.930595 16.2878 0.623879C13.7128 2.11448 12.9503 6.54014 14.0341 12.0784C14.1419 12.6269 14.2637 13.1725 14.3992 13.7148C13.7663 13.8947 13.1555 14.0861 12.5709 14.2899C7.34033 16.1136 4 18.9715 4 21.9359C4 24.9976 7.586 28.0685 13.0339 29.9306C13.4756 30.0809 13.9209 30.2202 14.3695 30.3484C14.2238 30.9325 14.0945 31.5205 13.9816 32.1119C12.9484 37.554 13.7553 41.875 16.3233 43.3562C18.9756 44.8858 23.4273 43.3137 27.7619 39.5245C28.1134 39.2165 28.4572 38.8997 28.7928 38.5745C29.2266 38.993 29.6719 39.3993 30.1283 39.7929C34.3272 43.406 38.474 44.8649 41.0395 43.3797C43.6894 41.8457 44.5506 37.2037 43.4325 31.5561C43.3444 31.1136 43.2456 30.6734 43.1363 30.2357C43.4489 30.1431 43.7557 30.0477 44.0549 29.9485C49.7185 28.0722 53.4035 25.0385 53.4035 21.9359C53.4035 18.9607 49.9553 16.0835 44.6195 14.2467ZM43.3912 27.9454C43.121 28.0347 42.8439 28.121 42.5614 28.2049C41.9361 26.2255 41.0924 24.1208 40.0597 21.9461C41.0451 19.8233 41.8564 17.7455 42.4641 15.779C42.9695 15.9253 43.4599 16.0795 43.9327 16.2421C48.5045 17.8161 51.293 20.1429 51.293 21.9359C51.293 23.8456 48.2814 26.3249 43.3912 27.9454ZM41.3622 31.966C41.8566 34.4632 41.927 36.7211 41.5995 38.4863C41.3054 40.0724 40.7138 41.1297 39.982 41.5533C38.4252 42.4546 35.0956 41.2832 31.5048 38.1931C31.0803 37.8271 30.6661 37.4494 30.2626 37.0603C31.6548 35.5379 33.046 33.768 34.4038 31.8023C36.7922 31.5904 39.0485 31.2438 41.0947 30.7708C41.1954 31.1774 41.285 31.5761 41.3622 31.966ZM20.8427 41.3976C19.3216 41.9347 18.1101 41.9501 17.3777 41.5279C15.8194 40.6291 15.1716 37.1595 16.0552 32.5055C16.1603 31.9556 16.2805 31.4087 16.4159 30.8654C18.4395 31.3131 20.6795 31.635 23.0734 31.8291C24.4405 33.7526 25.8719 35.5205 27.3144 37.0686C27.0078 37.3653 26.694 37.6543 26.3732 37.9355C24.4563 39.611 22.5356 40.7997 20.8427 41.3976ZM13.7167 27.9336C11.3077 27.1101 9.31821 26.0401 7.9546 24.8723C6.72916 23.8231 6.11065 22.7812 6.11065 21.9359C6.11065 20.1369 8.79253 17.8424 13.2657 16.2829C13.8085 16.0937 14.3767 15.9152 14.9662 15.7477C15.5845 17.7586 16.3955 19.8611 17.3741 21.9872C16.3827 24.1448 15.5602 26.2809 14.9359 28.3155C14.5264 28.1982 14.1199 28.0709 13.7167 27.9336ZM16.1054 11.6729C15.177 6.92804 15.7935 3.34879 17.3453 2.45046C18.998 1.49365 22.6527 2.85784 26.5048 6.27826C26.756 6.50181 27.0032 6.72989 27.2461 6.96239C25.8107 8.50374 24.3925 10.2585 23.0375 12.1706C20.714 12.386 18.4899 12.7318 16.4451 13.1951C16.3191 12.6907 16.2058 12.1832 16.1054 11.6731V11.6729ZM37.4159 16.9351C36.9329 16.1009 36.432 15.2771 35.9135 14.4644C37.4898 14.6637 39.0001 14.9283 40.4183 15.2518C39.9926 16.6165 39.4619 18.0432 38.8372 19.5061C38.3806 18.6397 37.9067 17.7826 37.4159 16.9351ZM28.7255 8.47074C29.6989 9.52539 30.6738 10.7028 31.6328 11.9803C29.6875 11.8884 27.739 11.8881 25.7937 11.9792C26.7536 10.7134 27.7368 9.53755 28.7255 8.47074ZM19.9793 16.9496C19.4946 17.7902 19.0296 18.642 18.5846 19.5043C17.9702 18.0467 17.4443 16.6134 17.0149 15.2294C18.4245 14.914 19.9276 14.6562 21.4939 14.4605C20.9696 15.2782 20.4646 16.1081 19.9793 16.9494V16.9496ZM21.5388 29.5614C19.9207 29.3808 18.3949 29.1363 16.9858 28.8294C17.4219 27.4207 17.9594 25.9569 18.5872 24.468C19.0339 25.331 19.5008 26.1833 19.9876 27.0243C20.4882 27.8888 21.0066 28.7356 21.5388 29.5614ZM28.7838 35.5497C27.7833 34.4705 26.7856 33.2765 25.8113 31.9924C26.7573 32.0295 27.7216 32.0484 28.7018 32.0484C29.7087 32.0484 30.7041 32.0258 31.6839 31.9822C30.7219 33.2894 29.7506 34.4852 28.7838 35.5497ZM38.8571 24.392C39.5175 25.8972 40.074 27.3533 40.5159 28.7379C39.0836 29.0649 37.5371 29.3281 35.9075 29.5236C36.4297 28.6958 36.9353 27.8577 37.4242 27.0098C37.9212 26.1479 38.3989 25.2751 38.8571 24.392ZM35.5961 25.9553C34.8477 27.2553 34.0573 28.5307 33.226 29.7793C31.7203 29.8859 30.2113 29.9389 28.7018 29.9381C27.1643 29.9381 25.6688 29.8902 24.2288 29.7968C23.3759 28.5511 22.5704 27.2736 21.814 25.9669H21.8142C21.0614 24.6672 20.3583 23.3394 19.7063 21.9863C20.3566 20.6329 21.0576 19.3044 21.8078 18.0037L21.8076 18.0039C22.5576 16.7028 23.3567 15.4307 24.2031 14.1904C25.6723 14.0792 27.1789 14.0213 28.7016 14.0213H28.7018C30.2313 14.0213 31.7399 14.0798 33.2087 14.1917C34.0466 15.4302 34.8406 16.698 35.5891 17.9925C36.3418 19.2903 37.0521 20.6123 37.7189 21.9564C37.059 23.3141 36.3509 24.648 35.5961 25.9553ZM39.9497 2.38755C41.604 3.34165 42.2474 7.18914 41.208 12.2347C41.1416 12.5566 41.0671 12.8844 40.986 13.2169C38.9362 12.7438 36.7105 12.3919 34.3803 12.1733C33.0228 10.2402 31.6162 8.4827 30.2041 6.96123C30.5742 6.6045 30.9531 6.25703 31.3404 5.91912C34.9878 2.74514 38.3966 1.49191 39.9497 2.38755ZM28.7018 17.5243C31.1382 17.5243 33.1133 19.4995 33.1133 21.9359C33.1133 24.3723 31.1382 26.3475 28.7018 26.3475C26.2654 26.3475 24.2902 24.3723 24.2902 21.9359C24.2902 19.4995 26.2654 17.5243 28.7018 17.5243Z" fill="#00D8FF"/>
</g>
<defs>
<filter id="filter0_d" x="0" y="0" width="57.4035" height="51.955" filterUnits="userSpaceOnUse" color-interpolation-filters="sRGB">
<feFlood flood-opacity="0" result="BackgroundImageFix"/>
<feColorMatrix in="SourceAlpha" type="matrix" values="0 0 0 0 0 0 0 0 0 0 0 0 0 0 0 0 0 0 127 0"/>
<feOffset dy="4"/>
<feGaussianBlur stdDeviation="2"/>
<feColorMatrix type="matrix" values="0 0 0 0 0 0 0 0 0 0 0 0 0 0 0 0 0 0 0.5 0"/>
<feBlend mode="normal" in2="BackgroundImageFix" result="effect1_dropShadow"/>
<feBlend mode="normal" in="SourceGraphic" in2="effect1_dropShadow" result="shape"/>
</filter>
</defs>
</svg>
