<svg width="67" height="52" viewBox="0 0 67 52" fill="none" xmlns="http://www.w3.org/2000/svg">
<g filter="url(#filter0_d)">
<path d="M54.3771 25.2221C52.3361 25.2326 50.5622 25.7242 49.0769 26.4509C48.5317 25.3715 47.9868 24.4099 47.8908 23.7045C47.7837 22.8818 47.6556 22.3795 47.7837 21.3964C47.9121 20.4132 48.4891 19.0133 48.4784 18.9065C48.4678 18.7997 48.35 18.2973 47.1746 18.2868C45.9992 18.276 44.984 18.5111 44.8665 18.821C44.7489 19.1308 44.5245 19.8362 44.3749 20.5626C44.1719 21.6315 42.0241 25.4462 40.7953 27.4445C40.3998 26.6647 40.0579 25.9806 39.9829 25.4356C39.8761 24.6129 39.7478 24.1106 39.8761 23.1275C40.0045 22.1444 40.5815 20.7446 40.5707 20.6376C40.56 20.5308 40.4424 20.0285 39.267 20.0179C38.0914 20.0071 37.0762 20.2423 36.9588 20.5521C36.8413 20.8622 36.7129 21.5886 36.4673 22.294C36.2214 22.9994 33.3682 29.3684 32.6202 31.0138C32.318 31.6798 32.0009 32.339 31.6692 32.9908C31.6692 32.9908 31.6584 33.0229 31.6264 33.0763C31.5222 33.2807 31.4154 33.4837 31.306 33.6854V33.696C31.1456 33.9847 30.9746 34.2517 30.8891 34.2517C30.825 34.2517 30.7074 33.4824 30.9104 32.4351C31.3378 30.2232 32.353 26.7822 32.3425 26.6647C32.3425 26.6005 32.5348 26.0021 31.68 25.6921C30.8463 25.3822 30.5472 25.8951 30.4723 25.8951C30.3976 25.8951 30.3439 26.0769 30.3439 26.0769C30.3439 26.0769 31.2739 22.2085 28.5702 22.2085C26.8819 22.2085 24.5522 24.0572 23.3981 25.7242C22.0862 26.4381 20.7753 27.1541 19.4656 27.8721C18.8354 28.2248 18.1834 28.5775 17.5743 28.9087C17.5315 28.866 17.4888 28.8124 17.446 28.7698C14.176 25.2755 8.12783 22.8069 8.38427 18.1158C8.48052 16.406 9.0681 11.9178 20 6.46798C28.9976 2.03314 36.1574 3.26194 37.397 5.98696C39.1707 9.87683 33.5607 17.1006 24.2637 18.1477C20.716 18.5432 18.8565 17.1753 18.3865 16.6625C17.8949 16.128 17.82 16.096 17.6382 16.203C17.3392 16.3634 17.5315 16.8442 17.6382 17.1219C17.9162 17.8484 19.0595 19.1308 20.9937 19.7615C22.7035 20.317 26.8604 20.627 31.8936 18.6821C37.5251 16.502 41.9279 10.4431 40.6349 5.36729C39.3417 0.21654 30.7929 -1.4825 22.7035 1.39194C17.8949 3.10198 12.68 5.79469 8.92923 9.29979C4.47308 13.4672 3.76771 17.0899 4.05623 18.6074C5.09298 23.993 12.5198 27.4981 15.4905 30.0948C15.3409 30.1803 15.2017 30.2552 15.0844 30.3194C13.599 31.0566 7.93533 34.0166 6.52481 37.1477C4.92202 40.6954 6.78148 43.2389 8.01027 43.5806C11.8252 44.6387 15.7469 42.7366 17.8521 39.5947C19.9572 36.4531 19.7007 32.3709 18.7284 30.5009C18.7176 30.4796 18.7071 30.4581 18.6855 30.4367C19.0703 30.2124 19.4656 29.9773 19.8504 29.7529C20.5576 29.3349 21.2737 28.9322 21.9984 28.5452C21.6349 29.5391 21.3677 30.7253 21.2396 32.4351C21.0792 34.4442 21.9019 37.0514 22.9813 38.0772C23.4623 38.5263 24.0286 38.5369 24.392 38.5369C25.6529 38.5369 26.2194 37.4896 26.8498 36.25C27.6191 34.7327 28.3137 32.9695 28.3137 32.9695C28.3137 32.9695 27.4482 37.7355 29.7992 37.7355C30.654 37.7355 31.5196 36.624 31.9043 36.0577V36.0683C31.9043 36.0683 31.9256 36.0362 31.9685 35.9615C32.054 35.8226 32.1074 35.7369 32.1074 35.7369V35.7158C32.4493 35.1172 33.2188 33.7601 34.3621 31.5054C35.8368 28.5988 37.2581 24.9656 37.2581 24.9656C37.2581 24.9656 37.3865 25.8525 37.8244 27.3272C38.0811 28.1927 38.615 29.1438 39.0426 30.0627C38.7007 30.5438 38.4869 30.8107 38.4869 30.8107L38.4977 30.8215C38.2197 31.1847 37.9206 31.5801 37.5893 31.9651C36.4244 33.354 35.0354 34.9465 34.8429 35.4058C34.6184 35.9507 34.672 36.3463 35.0996 36.6669C35.4094 36.902 35.9649 36.9339 36.5314 36.902C37.5787 36.8271 38.316 36.5706 38.6792 36.4104C39.2457 36.2074 39.9082 35.8973 40.5279 35.4379C41.6714 34.5936 42.3658 33.3861 42.3019 31.7941C42.2698 30.9178 41.9813 30.0414 41.6286 29.2185C41.7356 29.0691 41.8316 28.9194 41.9386 28.7698C43.7445 26.1303 45.1444 23.2343 45.1444 23.2343C45.1444 23.2343 45.2728 24.1211 45.7107 25.5961C45.9245 26.3441 46.3627 27.1562 46.7472 27.9469C45.0482 29.3255 44.0009 30.9283 43.6269 31.9756C42.9538 33.9205 43.4772 34.7966 44.4711 34.9997C44.9199 35.0959 45.5611 34.8821 46.0313 34.6791C46.6297 34.4868 47.335 34.1557 48.0083 33.6639C49.1519 32.8199 50.2523 31.6442 50.1882 30.0522C50.1561 29.3255 49.9638 28.6094 49.6966 27.9148C51.1392 27.3166 52.9987 26.9853 55.3708 27.263C60.4576 27.8614 61.462 31.0351 61.2695 32.3711C61.0772 33.7067 60.0086 34.4334 59.6562 34.6578C59.3033 34.8824 59.1859 34.9571 59.218 35.1172C59.2606 35.3524 59.4316 35.3418 59.7309 35.299C60.1478 35.2243 62.4025 34.2196 62.4985 31.7618C62.659 28.6201 59.6667 25.19 54.3771 25.2221ZM15.1378 38.4514C13.4493 40.2893 11.0985 40.9839 10.0833 40.3963C8.99339 39.7657 9.42079 37.0514 11.4938 35.1067C12.7547 33.9205 14.379 32.8196 15.4584 32.1466C15.7041 31.9969 16.0675 31.7833 16.5057 31.5161C16.5804 31.4733 16.6233 31.452 16.6233 31.452L16.8797 31.2915C17.6382 34.07 16.9118 36.5172 15.1378 38.4514ZM27.4269 30.0948C26.8391 31.5269 25.6103 35.1922 24.8623 34.9891C24.2211 34.8182 23.8255 32.0398 24.7339 29.2934C25.1934 27.9148 26.1658 26.2691 26.7323 25.6281C27.6512 24.6022 28.6664 24.26 28.9121 24.6771C29.2222 25.2221 27.7901 29.1972 27.4269 30.0948ZM37.568 34.9463C37.3221 35.0746 37.0872 35.1601 36.9801 35.0959C36.9054 35.0531 37.0872 34.8821 37.0872 34.8821C37.0872 34.8821 38.3588 33.5145 38.8609 32.8946C39.1497 32.5313 39.4914 32.1039 39.8548 31.6229V31.7618C39.8548 33.3969 38.2731 34.4976 37.5677 34.9463H37.568ZM45.3901 33.1618C45.2084 33.0334 45.2405 32.606 45.8496 31.2702C46.0847 30.7466 46.6402 29.8705 47.5915 29.0262C47.6983 29.3681 47.7732 29.6995 47.7624 30.0094C47.7517 32.0719 46.2772 32.8412 45.3901 33.1618Z" fill="#CD6799"/>
</g>
<defs>
<filter id="filter0_d" x="0" y="0" width="66.5047" height="51.8749" filterUnits="userSpaceOnUse" color-interpolation-filters="sRGB">
<feFlood flood-opacity="0" result="BackgroundImageFix"/>
<feColorMatrix in="SourceAlpha" type="matrix" values="0 0 0 0 0 0 0 0 0 0 0 0 0 0 0 0 0 0 127 0"/>
<feOffset dy="4"/>
<feGaussianBlur stdDeviation="2"/>
<feColorMatrix type="matrix" values="0 0 0 0 0 0 0 0 0 0 0 0 0 0 0 0 0 0 0.5 0"/>
<feBlend mode="normal" in2="BackgroundImageFix" result="effect1_dropShadow"/>
<feBlend mode="normal" in="SourceGraphic" in2="effect1_dropShadow" result="shape"/>
</filter>
</defs>
</svg>
